<svg xmlns="http://www.w3.org/2000/svg" width="256" height="256" viewBox="0 0 100 100">
<defs>
<linearGradient id="grad1" x1="0%" y1="0%" x2="100%" y2="0%">
      <stop offset="0%" style="stop-color:#50e3c2;stop-opacity:1" />
      <stop offset="100%" style="stop-color:#188CC9;stop-opacity:1" />
    </linearGradient>
  </defs>
<rect width="100" height="100" rx="20" fill="url(#grad1)"></rect>
<path d="M88.16 28.94Q88.16 36.59 82.76 42.12Q77.36 47.66 67.01 50.09L67.01 50.09Q72.59 51.62 75.47 55.08Q78.35 58.55 78.35 63.05L78.35 63.05Q78.35 70.16 73.89 75.38Q69.44 80.60 60.89 83.43Q52.34 86.27 40.28 86.27L40.28 86.27Q35.78 86.27 33.08 86.00L33.08 86.00Q32.99 88.52 30.92 89.78Q28.85 91.04 25.61 91.04L25.61 91.04Q22.37 91.04 21.16 89.60Q19.94 88.16 20.12 85.37L20.12 85.37Q20.93 72.77 23.27 58.95Q25.61 45.14 29.21 32.27L29.21 32.27Q29.84 30.02 31.73 29.12Q33.62 28.22 36.68 28.22L36.68 28.22Q42.17 28.22 42.17 31.28L42.17 31.28Q42.17 32.54 41.63 34.16L41.63 34.16Q39.29 41.18 36.95 53.19Q34.61 65.21 33.62 76.10L33.62 76.10Q37.94 76.46 40.64 76.46L40.64 76.46Q53.24 76.46 59.14 72.81Q65.03 69.17 65.03 63.50L65.03 63.50Q65.03 59.54 61.66 56.84Q58.28 54.14 50.36 53.87L50.36 53.87Q48.56 53.78 47.84 52.97Q47.12 52.16 47.12 50.36L47.12 50.36Q47.12 47.75 48.20 46.13Q49.28 44.51 52.16 44.42L52.16 44.42Q58.55 44.24 63.72 42.53Q68.90 40.82 71.87 37.71Q74.84 34.61 74.84 30.47L74.84 30.47Q74.84 25.25 69.71 22.23Q64.58 19.22 53.96 19.22L53.96 19.22Q44.33 19.22 35.33 21.69Q26.33 24.17 20.03 27.95L20.03 27.95Q17.15 29.66 15.17 29.66L15.17 29.66Q13.55 29.66 12.70 28.53Q11.84 27.41 11.84 25.70L11.84 25.70Q11.84 23.45 12.79 21.83Q13.73 20.21 17.33 18.14L17.33 18.14Q24.89 13.82 35.06 11.39Q45.23 8.96 55.85 8.96L55.85 8.96Q72.14 8.96 80.15 14.45Q88.16 19.94 88.16 28.94L88.16 28.94Z" fill="#fff"></path></svg>